<svg width="30" height="30" viewBox="0 0 30 30" fill="none" xmlns="http://www.w3.org/2000/svg">
<path d="M26.8751 5H24.1667V6.66667H26.6667V25H3.33338V6.66667H5.83338V5H3.12505C2.93025 5.00326 2.738 5.04486 2.55927 5.12242C2.38055 5.19999 2.21886 5.31201 2.08344 5.45208C1.94801 5.59214 1.84151 5.75752 1.77001 5.93875C1.6985 6.11999 1.66341 6.31353 1.66672 6.50833V25.1583C1.66341 25.3531 1.6985 25.5467 1.77001 25.7279C1.84151 25.9092 1.94801 26.0745 2.08344 26.2146C2.21886 26.3547 2.38055 26.4667 2.55927 26.5442C2.738 26.6218 2.93025 26.6634 3.12505 26.6667H26.8751C27.0699 26.6634 27.2621 26.6218 27.4408 26.5442C27.6196 26.4667 27.7812 26.3547 27.9167 26.2146C28.0521 26.0745 28.1586 25.9092 28.2301 25.7279C28.3016 25.5467 28.3367 25.3531 28.3334 25.1583V6.50833C28.3367 6.31353 28.3016 6.11999 28.2301 5.93875C28.1586 5.75752 28.0521 5.59214 27.9167 5.45208C27.7812 5.31201 27.6196 5.19999 27.4408 5.12242C27.2621 5.04486 27.0699 5.00326 26.8751 5Z" fill="#F3F2EE"/>
<path d="M6.66675 11.6667H8.33341V13.3333H6.66675V11.6667Z" fill="#F3F2EE"/>
<path d="M11.6667 11.6667H13.3334V13.3333H11.6667V11.6667Z" fill="#F3F2EE"/>
<path d="M16.6667 11.6667H18.3334V13.3333H16.6667V11.6667Z" fill="#F3F2EE"/>
<path d="M21.6667 11.6667H23.3334V13.3333H21.6667V11.6667Z" fill="#F3F2EE"/>
<path d="M6.66675 15.8333H8.33341V17.5H6.66675V15.8333Z" fill="#F3F2EE"/>
<path d="M11.6667 15.8333H13.3334V17.5H11.6667V15.8333Z" fill="#F3F2EE"/>
<path d="M16.6667 15.8333H18.3334V17.5H16.6667V15.8333Z" fill="#F3F2EE"/>
<path d="M21.6667 15.8333H23.3334V17.5H21.6667V15.8333Z" fill="#F3F2EE"/>
<path d="M6.66675 20H8.33341V21.6667H6.66675V20Z" fill="#F3F2EE"/>
<path d="M11.6667 20H13.3334V21.6667H11.6667V20Z" fill="#F3F2EE"/>
<path d="M16.6667 20H18.3334V21.6667H16.6667V20Z" fill="#F3F2EE"/>
<path d="M21.6667 20H23.3334V21.6667H21.6667V20Z" fill="#F3F2EE"/>
<path d="M8.33333 8.33332C8.55435 8.33332 8.76631 8.24552 8.92259 8.08924C9.07887 7.93296 9.16667 7.721 9.16667 7.49999V2.49999C9.16667 2.27898 9.07887 2.06701 8.92259 1.91073C8.76631 1.75445 8.55435 1.66666 8.33333 1.66666C8.11232 1.66666 7.90036 1.75445 7.74408 1.91073C7.5878 2.06701 7.5 2.27898 7.5 2.49999V7.49999C7.5 7.721 7.5878 7.93296 7.74408 8.08924C7.90036 8.24552 8.11232 8.33332 8.33333 8.33332Z" fill="#F3F2EE"/>
<path d="M21.6666 8.33332C21.8876 8.33332 22.0996 8.24552 22.2558 8.08924C22.4121 7.93296 22.4999 7.721 22.4999 7.49999V2.49999C22.4999 2.27898 22.4121 2.06701 22.2558 1.91073C22.0996 1.75445 21.8876 1.66666 21.6666 1.66666C21.4456 1.66666 21.2336 1.75445 21.0773 1.91073C20.921 2.06701 20.8333 2.27898 20.8333 2.49999V7.49999C20.8333 7.721 20.921 7.93296 21.0773 8.08924C21.2336 8.24552 21.4456 8.33332 21.6666 8.33332Z" fill="#F3F2EE"/>
<path d="M10.8333 5H19.1666V6.66667H10.8333V5Z" fill="#F3F2EE"/>
</svg>
