<svg width="53" height="38" viewBox="0 0 53 38" fill="none" xmlns="http://www.w3.org/2000/svg">
<path d="M18.3096 26.9641L33.3747 36.789L52.1693 26.8753L51.4248 25.6971L34.0643 34.8543L17.7211 24.9181L17.3892 23.915C23.2283 26.0742 26.761 27.9607 33.4231 32.247L50.5871 24.3716L50.0287 23.488L33.6546 31.3394C25.4093 26.08 21.6803 24.1259 17.3653 23.2402L17.1792 22.9457C22.7839 23.6023 26.4188 25.2431 33.7176 30.3243L51.3573 21.609L49.2479 20.6598L33.5531 28.1529C26.2288 24.2863 22.4628 22.6955 17.3415 22.5655L17.1088 22.1973C18.2754 21.0989 22.4882 22.396 33.5344 26.69L50.4834 18.6335L49.0305 17.927L33.4691 25.1534C28.951 24.0919 26.5077 23.3447 22.2085 21.6674L17.4976 21.6977C23.4354 21.1959 26.8259 21.4845 33.0379 23.5154L49.5515 15.8849L46.4722 15.1527L32.2167 21.1012C26.1276 20.6233 22.9248 20.5577 17.9618 21.1583C22.6136 19.1512 25.2825 18.7693 30.1061 18.8762L47.386 10.547L43.9128 11.1026L29.983 17.5666C23.7439 18.0749 20.9997 18.8398 17.3518 20.9892C21.9368 18.146 24.5924 16.9736 29.4876 15.6678L46.5762 7.83225L28.65 14.3423C23.9113 16.4441 21.3338 17.8258 16.9392 20.8141C17.9614 15.6198 19.0436 13.016 23.0577 9.63371L42.7512 4.64606L23.0918 8.73208C18.917 12.0733 17.5461 14.8449 16.2712 20.8718C16.6218 14.8594 17.2808 11.5999 19.5925 6.06137L39.5476 1.32845L38.917 4.31204L39.9653 0.715389L19.2668 5.5459C16.6439 11.361 15.8993 14.5958 15.992 20.43L3.23893 10.7601L22.2974 3.65279L24.5291 4.3178L21.8785 2.99005L1.1709 10.6727L14.471 21.5268C14.8272 23.9917 15.4288 25.0831 17.4958 26.3133L15.2383 22.104C16.7892 22.6163 17.3513 23.8222 18.1235 26.6695" stroke="#16235A"/>
</svg>
