<svg width="23" height="6" viewBox="0 0 23 6" fill="none" xmlns="http://www.w3.org/2000/svg">
<path d="M0.3785 3.07812C0.3785 2.75521 0.441 2.45312 0.566 2.17188C0.691 1.88021 0.857667 1.63021 1.066 1.42188C1.27433 1.20312 1.51912 1.03125 1.80037 0.90625C2.09204 0.78125 2.39933 0.71875 2.72225 0.71875C3.04517 0.71875 3.34725 0.78125 3.6285 0.90625C3.92017 1.03125 4.17017 1.20312 4.3785 1.42188C4.59725 1.63021 4.76912 1.88021 4.89412 2.17188C5.01912 2.45312 5.08162 2.75521 5.08162 3.07812C5.08162 3.40104 5.01912 3.70833 4.89412 4C4.76912 4.28125 4.59725 4.52604 4.3785 4.73438C4.17017 4.94271 3.92017 5.10938 3.6285 5.23438C3.34725 5.35938 3.04517 5.42188 2.72225 5.42188C2.39933 5.42188 2.09204 5.35938 1.80037 5.23438C1.51912 5.10938 1.27433 4.94271 1.066 4.73438C0.857667 4.52604 0.691 4.28125 0.566 4C0.441 3.70833 0.3785 3.40104 0.3785 3.07812ZM8.8455 3.07812C8.8455 2.75521 8.908 2.45312 9.033 2.17188C9.158 1.88021 9.32467 1.63021 9.533 1.42188C9.74133 1.20312 9.98612 1.03125 10.2674 0.90625C10.559 0.78125 10.8663 0.71875 11.1892 0.71875C11.5122 0.71875 11.8142 0.78125 12.0955 0.90625C12.3872 1.03125 12.6372 1.20312 12.8455 1.42188C13.0642 1.63021 13.2361 1.88021 13.3611 2.17188C13.4861 2.45312 13.5486 2.75521 13.5486 3.07812C13.5486 3.40104 13.4861 3.70833 13.3611 4C13.2361 4.28125 13.0642 4.52604 12.8455 4.73438C12.6372 4.94271 12.3872 5.10938 12.0955 5.23438C11.8142 5.35938 11.5122 5.42188 11.1892 5.42188C10.8663 5.42188 10.559 5.35938 10.2674 5.23438C9.98612 5.10938 9.74133 4.94271 9.533 4.73438C9.32467 4.52604 9.158 4.28125 9.033 4C8.908 3.70833 8.8455 3.40104 8.8455 3.07812ZM17.3125 3.07812C17.3125 2.75521 17.375 2.45312 17.5 2.17188C17.625 1.88021 17.7917 1.63021 18 1.42188C18.2083 1.20312 18.4531 1.03125 18.7344 0.90625C19.026 0.78125 19.3333 0.71875 19.6562 0.71875C19.9792 0.71875 20.2812 0.78125 20.5625 0.90625C20.8542 1.03125 21.1042 1.20312 21.3125 1.42188C21.5312 1.63021 21.7031 1.88021 21.8281 2.17188C21.9531 2.45312 22.0156 2.75521 22.0156 3.07812C22.0156 3.40104 21.9531 3.70833 21.8281 4C21.7031 4.28125 21.5312 4.52604 21.3125 4.73438C21.1042 4.94271 20.8542 5.10938 20.5625 5.23438C20.2812 5.35938 19.9792 5.42188 19.6562 5.42188C19.3333 5.42188 19.026 5.35938 18.7344 5.23438C18.4531 5.10938 18.2083 4.94271 18 4.73438C17.7917 4.52604 17.625 4.28125 17.5 4C17.375 3.70833 17.3125 3.40104 17.3125 3.07812Z" fill="#16235A"/>
</svg>
