<svg width="30" height="30" viewBox="0 0 30 30" fill="none" xmlns="http://www.w3.org/2000/svg">
<path d="M16.1498 5.85565L6.89478 8.59221L9.15228 12.1435L18.7106 8.64331L16.1498 5.85565Z" fill="#F3F2EE"/>
<path d="M15.7613 2.8125L3.23766 6.26766C3.23766 6.26766 0.9375 6.20297 0.9375 8.64609C0.9375 9.65438 1.38469 10.4058 1.38469 10.4058L10.9256 26.363C11.8378 27.8161 13.7752 26.9063 13.7752 26.9063L28.4053 19.7789L27.8578 19.2234C27.7289 18.5564 27.6539 17.3213 28.5595 16.4016C28.5797 16.3809 28.5834 16.3528 28.5942 16.327L29.0625 16.1391L15.7613 2.8125ZM15.4838 3.86156L27.3975 15.7978L13.3744 21.6872L3.92578 6.99938L15.4838 3.86156ZM10.5872 23.9709L2.19469 9.93281C2.19094 9.92766 1.875 9.36609 1.875 8.64609C1.875 7.73297 2.32219 7.38563 2.75953 7.26422L12.3563 22.2342C11.6339 22.5469 10.8267 23.2613 10.5872 23.9709ZM27.3806 17.8786C27.3502 18.0942 27.3347 18.3042 27.338 18.5011L17.7337 23.0597L27.3722 18.9694C27.3816 19.0439 27.39 19.1189 27.4017 19.1864L15.09 25.133L27.4988 19.6298L27.5063 19.6589L13.7752 26.2275C13.7686 26.2317 13.1419 26.565 12.5138 26.565C11.8931 26.565 11.5064 26.2463 11.3302 25.5909C10.8769 23.9072 13.4522 22.9528 13.4911 22.9388L27.7331 16.777C27.6309 16.9645 27.5602 17.1553 27.5011 17.3456L18.4603 21.6014L27.3806 17.8786Z" fill="#F3F2EE"/>
</svg>
