<svg width="30" height="30" viewBox="0 0 30 30" fill="none" xmlns="http://www.w3.org/2000/svg">
<path d="M2.5 27.5H26.875M3.75 16.25V27.5M26.25 16.25V27.5M9.375 9.99998V27.5M20.625 9.99998V27.5M2.5 16.25H8.75M27.5 16.25H21.25M8.125 9.99998H21.875M15 9.99998V6.22748M15 6.22748V3.71248C15 3.11998 15 2.82373 15.1825 2.63998C15.7575 2.06123 18.125 3.42873 19.025 3.98373C19.785 4.45123 20 5.38623 20 6.22748H15ZM15 27.5V25M13.125 15V15.625M16.875 15V15.625M13.125 20V20.625M16.875 20V20.625" stroke="#F3F2EE" stroke-width="1.7" stroke-linecap="round" stroke-linejoin="round"/>
</svg>
