<svg width="30" height="30" viewBox="0 0 30 30" fill="none" xmlns="http://www.w3.org/2000/svg">
<path d="M2.5 2.5H20C22.3575 2.5 23.535 2.5 24.2675 3.2325C25 3.965 25 5.1425 25 7.5V15C25 17.3575 25 18.535 24.2675 19.2675C23.535 20 22.3575 20 20 20H11.25M12.5 8.125H20M2.5 21.25V16.25C2.5 15.0712 2.5 14.4825 2.86625 14.1163C3.2325 13.75 3.82125 13.75 5 13.75H7.5M2.5 21.25H7.5M2.5 21.25V27.5M7.5 13.75V21.25M7.5 13.75H15M7.5 21.25V27.5" stroke="#F3F2EE" stroke-width="2" stroke-linecap="round" stroke-linejoin="round"/>
<path d="M7.5 8.125C7.5 8.78804 7.23661 9.42393 6.76777 9.89277C6.29893 10.3616 5.66304 10.625 5 10.625C4.33696 10.625 3.70107 10.3616 3.23223 9.89277C2.76339 9.42393 2.5 8.78804 2.5 8.125C2.5 7.46196 2.76339 6.82607 3.23223 6.35723C3.70107 5.88839 4.33696 5.625 5 5.625C5.66304 5.625 6.29893 5.88839 6.76777 6.35723C7.23661 6.82607 7.5 7.46196 7.5 8.125Z" stroke="#F3F2EE" stroke-width="2" stroke-linecap="round" stroke-linejoin="round"/>
</svg>
