<svg width="30" height="30" viewBox="0 0 30 30" fill="none" xmlns="http://www.w3.org/2000/svg">
<path d="M29.3929 10.6301L15.3304 3.13008C15.2288 3.07531 15.1153 3.04663 14.9999 3.04663C14.8845 3.04663 14.771 3.07531 14.6694 3.13008L0.606935 10.6301C0.494731 10.6901 0.40093 10.7795 0.335533 10.8887C0.270136 10.9979 0.235596 11.1227 0.235596 11.25C0.235596 11.3773 0.270136 11.5021 0.335533 11.6113C0.40093 11.7205 0.494731 11.8099 0.606935 11.8699L3.98428 13.6723V19.4871C3.98418 19.8899 4.13225 20.2786 4.40029 20.5793C5.9085 22.2586 9.2917 25.0781 14.9999 25.0781C17.0099 25.097 19.003 24.7092 20.8593 23.9379V28.125C20.8593 28.3115 20.9334 28.4903 21.0652 28.6222C21.1971 28.754 21.3759 28.8281 21.5624 28.8281C21.7489 28.8281 21.9277 28.754 22.0596 28.6222C22.1915 28.4903 22.2655 28.3115 22.2655 28.125V23.2441C23.5135 22.5413 24.6394 21.641 25.5995 20.5781C25.8682 20.2784 26.0164 19.8897 26.0155 19.4871V13.6723L29.3929 11.8699C29.5051 11.8099 29.5989 11.7205 29.6643 11.6113C29.7297 11.5021 29.7642 11.3773 29.7642 11.25C29.7642 11.1227 29.7297 10.9979 29.6643 10.8887C29.5989 10.7795 29.5051 10.6901 29.3929 10.6301ZM14.9999 23.6719C9.84365 23.6719 6.79678 21.1453 5.44678 19.6395C5.41047 19.597 5.39052 19.543 5.39053 19.4871V14.4223L14.6694 19.3699C14.7712 19.4241 14.8847 19.4524 14.9999 19.4524C15.1152 19.4524 15.2286 19.4241 15.3304 19.3699L20.8593 16.4215V22.398C19.3358 23.127 17.3964 23.6719 14.9999 23.6719ZM24.6093 19.4871C24.6093 19.543 24.5893 19.597 24.553 19.6395C23.8776 20.3876 23.1088 21.0457 22.2655 21.5977V15.6715L24.6093 14.4223V19.4871ZM22.0136 14.2137C21.9773 14.1822 21.9381 14.1543 21.8964 14.1305L15.3339 10.6312C15.1704 10.5527 14.9829 10.5404 14.8105 10.5969C14.6382 10.6534 14.4943 10.7743 14.409 10.9343C14.3237 11.0943 14.3035 11.2812 14.3527 11.4557C14.4019 11.6303 14.5166 11.7791 14.673 11.8711L20.537 15L14.9999 17.9531L2.43154 11.25L14.9999 4.54687L27.5683 11.25L22.0136 14.2137Z" fill="#F3F2EE"/>
</svg>
