<svg width="155" height="119" viewBox="0 0 155 119" fill="none" xmlns="http://www.w3.org/2000/svg">
<path d="M52.2309 87.1459L95.8998 116.758L152.324 84.1518L150.226 80.5155L98.1077 110.634L50.6709 80.7748L49.7776 77.6547C66.848 83.9598 77.1246 89.5945 96.4409 102.506L147.866 76.4246L146.293 73.6974L97.205 99.6404C73.2942 83.803 62.4431 77.9722 49.7664 75.54L49.242 74.6309C65.7513 76.2412 76.3514 81.0969 97.4803 96.4511L150.385 67.6965L144.233 64.888L97.1844 89.6525C75.874 78.1106 64.8815 73.4224 49.7551 73.4254L49.0996 72.289C52.6441 68.7497 64.983 72.4809 97.2574 85.0649L148.063 58.4325L143.831 56.333L97.1993 80.2501C83.9373 77.2824 76.7807 75.1345 64.2202 70.2177L50.2926 70.6905C67.8879 68.64 77.8845 69.2737 96.0682 75.1463L145.55 49.8851L136.512 47.8353L93.8527 67.6388C75.8959 66.628 66.4348 66.679 51.7121 68.9611C65.6381 62.292 73.5606 60.8799 87.8093 60.8283L139.617 33.314L129.302 35.3355L87.5602 56.7299C69.0735 58.8249 60.8951 61.4445 49.9237 68.4795C63.7257 59.193 71.6784 55.3021 86.2623 50.8134L137.461 24.8628L83.9026 46.7225C69.7113 53.6957 61.9716 58.2367 48.7195 67.9633C52.1965 51.5873 55.6239 43.3322 67.7857 32.4002L126.434 15.1746L67.9655 29.5691C55.3322 40.3852 51.0371 49.1897 46.7399 68.1982C48.3035 49.3093 50.5374 39.0313 57.8564 21.4718L117.256 5.02432L115.131 14.4343L118.544 3.06767L56.9387 19.8809C48.6758 38.3331 46.191 48.5403 45.9534 66.8346L9.10516 37.5232L66.0627 13.6992L72.6013 15.6063L64.8829 11.6538L3 37.415L41.3615 70.3972C42.1982 78.1007 43.8807 81.4763 49.8825 85.1697L43.5788 72.1461C48.1181 73.6288 49.6737 77.3666 51.7066 86.2368" stroke="#1D1D1D" stroke-width="3"/>
</svg>
