<svg width="155" height="119" viewBox="0 0 155 119" fill="none" xmlns="http://www.w3.org/2000/svg">
<path d="M102.595 87.146L58.9263 116.758L2.50247 84.1519L4.59997 80.5156L56.7183 110.634L104.155 80.7749L105.048 77.6548C87.9781 83.9599 77.7014 89.5946 58.3851 102.506L6.95964 76.4248L8.53276 73.6975L57.6211 99.6405C81.5319 83.8031 92.3829 77.9723 105.06 75.5401L105.584 74.6311C89.0747 76.2413 78.4746 81.097 57.3458 96.4512L4.44085 67.6966L10.5928 64.8882L57.6417 89.6526C78.952 78.1107 89.9445 73.4226 105.071 73.4255L105.726 72.2891C102.182 68.7498 89.8431 72.481 57.5687 85.065L6.76309 58.4327L10.9955 56.3331L57.6268 80.2502C70.8888 77.2825 78.0453 75.1346 90.6059 70.2178L104.533 70.6907C86.9381 68.6401 76.9416 69.2738 58.7579 75.1464L9.27638 49.8852L18.3142 47.8354L60.9734 67.639C78.9302 66.6282 88.3913 66.6791 103.114 68.9612C89.1879 62.2921 81.2655 60.88 67.0168 60.8284L15.2093 33.3141L25.5244 35.3356L67.2659 56.73C85.7526 58.825 93.931 61.4446 104.902 68.4796C91.1003 59.1932 83.1477 55.3022 68.5637 50.8135L17.3649 24.8629L70.9234 46.7226C85.1147 53.6958 92.8544 58.2368 106.107 67.9634C102.63 51.5874 99.2022 43.3323 87.0403 32.4003L28.3916 15.1747L86.8605 29.5692C99.4939 40.3853 103.789 49.1898 108.086 68.1983C106.523 49.3094 104.289 39.0315 96.9697 21.4719L37.57 5.02445L39.6955 14.4344L36.2816 3.06779L97.8873 19.881C106.15 38.3332 108.635 48.5404 108.873 66.8347L145.721 37.5233L88.7633 13.6994L82.2248 15.6065L89.9431 11.6539L151.826 37.4151L113.465 70.3973C112.628 78.1008 110.945 81.4764 104.944 85.1698L111.247 72.1462C106.708 73.629 105.152 77.3667 103.119 86.2369" stroke="#1D1D1D" stroke-width="3"/>
</svg>
