<svg width="98" height="90" viewBox="0 0 98 90" fill="none" xmlns="http://www.w3.org/2000/svg">
<path d="M-4.76905 87.1459L38.8998 116.758L95.3236 84.1518L93.2261 80.5155L41.1077 110.634L-6.32907 80.7748L-7.22239 77.6547C9.84796 83.9598 20.1246 89.5945 39.4409 102.506L90.8664 76.4246L89.2933 73.6974L40.205 99.6404C16.2942 83.803 5.44312 77.9722 -7.23364 75.54L-7.75801 74.6309C8.75133 76.2412 19.3514 81.0969 40.4803 96.4511L93.3852 67.6965L87.2332 64.888L40.1844 89.6525C18.874 78.1106 7.88153 73.4224 -7.24491 73.4254L-7.90038 72.289C-4.35593 68.7497 7.98297 72.4809 40.2574 85.0649L91.063 58.4325L86.8305 56.333L40.1993 80.2501C26.9373 77.2824 19.7807 75.1345 7.22017 70.2177L-6.70742 70.6905C10.8879 68.64 20.8845 69.2737 39.0682 75.1463L88.5497 49.8851L79.5118 47.8353L36.8527 67.6388C18.8959 66.628 9.43475 66.679 -5.28785 68.9611C8.63811 62.292 16.5606 60.8799 30.8093 60.8283L82.6167 33.314L72.3017 35.3355L30.5602 56.7299C12.0735 58.8249 3.89506 61.4445 -7.07633 68.4795C6.72575 59.193 14.6784 55.3021 29.2623 50.8134L80.4611 24.8628L26.9026 46.7225C12.7113 53.6957 4.97163 58.2367 -8.28054 67.9633C-4.80347 51.5873 -1.37614 43.3322 10.7857 32.4002L69.4344 15.1746L10.9655 29.5691C-1.66782 40.3852 -5.96292 49.1897 -10.2601 68.1982C-8.69649 49.3093 -6.46255 39.0313 0.856388 21.4718L60.2561 5.02432L58.1305 14.4343L61.5445 3.06767L-0.0612644 19.8809C-8.32421 38.3331 -10.809 48.5403 -11.0466 66.8346L-47.8948 37.5232L9.06274 13.6992L15.6013 15.6063L7.8829 11.6538L-54 37.415L-15.6385 70.3972C-14.8018 78.1007 -13.1193 81.4763 -7.11748 85.1697L-13.4212 72.1461C-8.8819 73.6288 -7.32629 77.3666 -5.29343 86.2368" stroke="#1D1D1D" stroke-width="3"/>
</svg>
