<svg width="144" height="119" viewBox="0 0 144 119" fill="none" xmlns="http://www.w3.org/2000/svg">
<path d="M102.595 87.1459L58.9263 116.758L2.50247 84.1518L4.59997 80.5155L56.7183 110.634L104.155 80.7748L105.048 77.6547C87.9781 83.9598 77.7014 89.5945 58.3851 102.506L6.95964 76.4246L8.53276 73.6974L57.6211 99.6404C81.5319 83.803 92.3829 77.9722 105.06 75.54L105.584 74.6309C89.0747 76.2412 78.4746 81.0969 57.3458 96.4511L4.44085 67.6965L10.5928 64.888L57.6417 89.6525C78.952 78.1106 89.9445 73.4224 105.071 73.4254L105.726 72.289C102.182 68.7497 89.8431 72.4809 57.5687 85.0649L6.76309 58.4325L10.9955 56.333L57.6268 80.2501C70.8888 77.2824 78.0453 75.1345 90.6059 70.2177L104.533 70.6905C86.9381 68.64 76.9416 69.2737 58.7579 75.1463L9.27638 49.8851L18.3142 47.8353L60.9734 67.6388C78.9302 66.628 88.3913 66.679 103.114 68.9611C89.1879 62.292 81.2655 60.8799 67.0168 60.8283L15.2093 33.314L25.5244 35.3355L67.2659 56.7299C85.7526 58.8249 93.931 61.4445 104.902 68.4795C91.1003 59.193 83.1477 55.3021 68.5637 50.8134L17.3649 24.8628L70.9234 46.7225C85.1147 53.6957 92.8544 58.2367 106.107 67.9633C102.63 51.5873 99.2022 43.3322 87.0403 32.4002L28.3916 15.1746L86.8605 29.5691C99.4939 40.3852 103.789 49.1897 108.086 68.1982C106.523 49.3093 104.289 39.0313 96.9697 21.4718L37.57 5.02432L39.6955 14.4343L36.2816 3.06767L97.8873 19.8809C106.15 38.3331 108.635 48.5403 108.873 66.8346L145.721 37.5232L88.7633 13.6992L82.2248 15.6063L89.9431 11.6538L151.826 37.415L113.465 70.3972C112.628 78.1007 110.945 81.4763 104.944 85.1697L111.247 72.1461C106.708 73.6288 105.152 77.3666 103.119 86.2368" stroke="#1D1D1D" stroke-width="3"/>
</svg>
