<svg width="16" height="4" viewBox="0 0 16 4" fill="none" xmlns="http://www.w3.org/2000/svg">
<path d="M2.01172 3.24C1.65172 3.24 1.33839 3.10667 1.07172 2.84C0.805052 2.57333 0.671719 2.26 0.671719 1.9C0.671719 1.48667 0.791719 1.16 1.03172 0.92C1.27172 0.68 1.59839 0.56 2.01172 0.56C2.35839 0.56 2.66505 0.693333 2.93172 0.96C3.21172 1.22667 3.35172 1.54 3.35172 1.9C3.35172 2.3 3.22505 2.62667 2.97172 2.88C2.71839 3.12 2.39839 3.24 2.01172 3.24ZM8.00781 3.24C7.64781 3.24 7.33448 3.10667 7.06781 2.84C6.80115 2.57333 6.66781 2.26 6.66781 1.9C6.66781 1.48667 6.78781 1.16 7.02781 0.92C7.26781 0.68 7.59448 0.56 8.00781 0.56C8.35448 0.56 8.66115 0.693333 8.92781 0.96C9.20781 1.22667 9.34781 1.54 9.34781 1.9C9.34781 2.3 9.22115 2.62667 8.96781 2.88C8.71448 3.12 8.39448 3.24 8.00781 3.24ZM14.0039 3.24C13.6439 3.24 13.3306 3.10667 13.0639 2.84C12.7972 2.57333 12.6639 2.26 12.6639 1.9C12.6639 1.48667 12.7839 1.16 13.0239 0.92C13.2639 0.68 13.5906 0.56 14.0039 0.56C14.3506 0.56 14.6572 0.693333 14.9239 0.96C15.2039 1.22667 15.3439 1.54 15.3439 1.9C15.3439 2.3 15.2172 2.62667 14.9639 2.88C14.7106 3.12 14.3906 3.24 14.0039 3.24Z" fill="#F3F2EE"/>
</svg>
